<svg width="16" height="16" viewBox="0 0 16 16" fill="none" xmlns="http://www.w3.org/2000/svg">
<rect width="16" height="16" fill="white"/>
<path d="M14.3241 7.33121C14.4032 6.74878 15.1579 1.68408 15.1579 1.68408H12.5785C12.5785 1.68408 12.0426 5.97314 11.8045 7.13801C11.5664 8.30192 10.6372 8.00034 10.6372 8.00034V1.68503H8V14.3157H10.6179V10.5308C11.0633 10.4488 11.7621 10.5308 11.9674 11.2961C12.1727 12.0613 12.3771 14.3147 12.3771 14.3147H14.8832C14.8832 14.3147 14.7029 12.6032 14.5102 11.1783C14.3174 9.75329 13.3776 9.1407 13.3776 9.1407C13.847 8.83346 14.2451 7.91269 14.3241 7.33121Z" fill="#4E552C"/>
<path d="M3.99969 1.68408C2.25577 1.68408 0.841797 3.0695 0.841797 4.77821V14.3157H3.32396L3.29231 11.8123H4.70628V14.3157H7.15759V4.77821C7.15759 3.0695 5.74362 1.68408 3.99969 1.68408ZM4.70628 9.36707H3.29231V4.82783C3.29231 4.44562 3.60881 4.13551 3.9989 4.13551C4.38899 4.13551 4.70549 4.44562 4.70549 4.82783V9.36707H4.70628Z" fill="#A47E3D"/>
</svg>
