<svg width="960" height="545" viewBox="0 0 960 545" fill="none" xmlns="http://www.w3.org/2000/svg">
<path d="M542.101 0.581083C540.429 1.78725 455.329 4.33361 437.305 3.79753C418.91 3.12744 386.022 4.06557 381.377 5.27174C378.775 6.07585 374.687 6.61193 372.086 6.61193C369.671 6.61193 366.14 7.148 364.282 7.81809C359.451 9.69436 336.782 12.2407 321.546 12.7768C313.928 12.9108 305.195 13.7149 302.036 14.385C298.692 15.0551 290.702 15.4572 284.013 15.3231C277.324 15.1891 270.263 15.5912 268.219 16.1273C263.388 17.3334 238.304 19.0757 221.767 19.3437C214.706 19.4777 185.72 20.0138 157.477 20.5499C121.616 21.354 104.893 21.22 102.291 20.1478C99.5042 19.0757 96.1597 19.2097 89.4706 20.5499C84.6395 21.622 75.5349 23.4983 69.4032 24.7045C63.2715 25.9106 54.5384 28.1889 49.8932 29.7972C45.4338 31.4054 40.7886 32.7456 39.8595 32.7456C36.7008 32.7456 36.515 36.9002 39.3021 39.0445C41.5318 40.6527 41.7176 41.4568 39.4879 44.2712C38.1873 46.0134 37.6298 48.8278 38.1873 50.436C38.7447 52.0443 37.8156 55.2607 36.3292 57.405C34.6569 59.8174 34.2853 61.8276 35.2143 62.3637C36.1434 62.7658 36.8866 65.0441 36.8866 67.3224C36.8866 69.7347 37.6298 73.6213 38.5589 75.8996C40.0453 79.3841 39.6737 80.8583 36.7008 83.5387C34.2853 85.817 33.9136 87.0232 35.4001 87.2912C36.8866 87.6933 36.3292 89.7035 33.542 93.8581C31.3123 97.2086 29.0826 101.765 28.711 104.044C28.5252 106.322 26.8529 109.538 24.9948 111.281C23.3225 113.023 22.0219 117.043 22.0219 120.26C22.0219 123.342 20.907 127.363 19.4205 128.971C17.9341 130.579 16.2618 134.6 15.5185 137.95C13.8463 148.002 13.4746 148.94 10.6875 150.548C7.15714 152.558 6.4139 161.136 7.71457 184.857C7.90037 187.403 7.34295 190.888 6.59971 192.362C5.48486 194.64 6.04228 195.444 9.20104 195.98C11.2449 196.382 12.7314 197.321 12.174 197.857C10.6875 199.465 14.5895 207.372 18.8631 211.661C22.5793 215.547 22.9509 219.434 19.7922 224.66C18.6773 226.671 17.3766 229.887 17.1908 231.763C16.8192 233.506 12.7314 237.66 8.08618 240.877C-1.01846 247.444 -1.20427 247.846 1.95449 256.423C3.81258 261.382 3.62677 263.124 1.58287 265.938C-0.461033 268.753 -0.461033 269.691 1.21125 270.495C2.51191 271.031 3.62677 272.639 3.62677 274.113C3.44096 275.453 3.44096 278.67 3.44096 281.216C3.25515 283.629 4.18419 286.443 5.11324 287.113C6.22809 287.917 7.15714 289.793 7.15714 291.402C7.15714 292.876 9.20104 296.36 11.9882 299.175C16.2618 303.731 16.4476 304.402 13.8463 306.278C9.75847 309.226 10.1301 310.7 15.3327 311.639C18.6773 312.175 19.978 313.515 20.907 317.669C21.4644 320.484 22.9509 322.896 24.0658 322.896C25.1806 322.896 25.3664 323.7 24.2516 325.04C23.3225 326.381 23.1367 329.329 24.0658 332.143C25.1806 335.628 24.809 337.504 22.7651 339.112C21.2786 340.319 19.4205 343.535 18.8631 346.215C17.9341 350.37 18.3057 351.04 21.6502 351.04C25.9239 351.04 33.9136 361.896 35.9575 370.741C37.0724 375.431 36.515 376.772 32.7988 379.452C27.2245 383.339 23.5083 388.565 24.6232 390.71C25.1806 391.648 24.2516 393.122 22.7651 393.926C21.2786 394.864 20.1638 396.204 20.1638 396.874C20.1638 397.545 18.3057 399.823 16.2618 401.967C14.0321 404.111 12.3598 407.462 12.5456 409.606C12.7314 411.617 12.9172 415.101 12.9172 417.111C12.9172 419.256 14.0321 422.338 15.5185 423.946C19.978 428.637 20.907 436.544 17.5624 440.162C13.4746 444.719 13.8463 445.925 19.978 448.606C24.2516 450.482 24.9948 451.42 23.6941 453.296C22.3935 454.771 22.7651 456.781 24.6232 459.461C26.1097 461.471 27.0387 463.616 26.4813 464.018C25.9239 464.42 26.8529 466.966 28.3394 469.647C30.0117 472.327 30.7549 475.141 30.3833 475.811C29.8258 476.348 28.8968 482.11 28.3394 488.409C27.5961 499.131 27.7819 500.337 32.613 506.502C35.4001 510.254 38.9305 513.203 40.2312 513.203C41.7176 513.203 42.0892 514.275 41.346 516.553C40.0453 520.172 44.1331 528.079 47.1061 527.677C48.0351 527.543 51.3797 528.213 54.5384 529.151C59.1837 530.625 61.9708 530.223 76.8355 526.471C99.5042 520.708 113.812 519.636 229.942 515.883C265.989 514.811 275.651 514.811 276.766 516.151C277.509 517.089 278.81 517.357 279.553 516.955C280.111 516.419 283.084 516.821 286.057 517.893C289.587 519.234 297.391 519.904 310.398 519.904C320.989 520.038 333.252 520.708 337.897 521.378C342.543 522.182 352.205 523.254 359.265 523.924C366.512 524.46 375.245 525.532 378.775 526.337C385.279 527.811 471.494 528.883 520.919 528.079C553.436 527.677 604.347 530.089 614.381 532.635C621.256 534.378 626.645 534.512 652.1 533.171C677.185 531.965 684.617 532.099 697.995 533.708C726.61 537.326 836.795 540.14 886.591 538.532C901.828 537.996 903.314 538.264 906.473 541.079C910.747 544.697 919.851 546.305 922.638 543.759C925.24 541.481 928.77 530.491 928.77 524.996C928.77 522.584 930.257 518.697 932.115 516.285C943.077 501.811 946.422 498.461 952.182 496.45C959.986 493.77 962.03 488.945 957.942 483.719C956.27 481.708 955.341 479.698 956.084 479.162C956.641 478.76 955.712 477.152 953.854 475.677C950.881 473.399 950.51 470.987 950.881 461.471C951.067 455.173 951.996 448.74 952.739 447.131C953.668 445.389 954.04 442.307 953.668 440.162C953.297 437.884 953.111 433.06 953.297 429.441C954.226 405.72 954.04 404.245 946.236 394.462C936.946 382.534 934.716 378.38 934.53 372.215C934.344 369.401 933.23 366.72 931.743 366.184C928.77 364.978 926.355 345.679 929.328 345.679C930.442 345.679 930.442 345.009 929.142 343.937C927.284 342.329 929.142 328.525 931.557 325.576C932.3 324.772 933.229 319.144 933.787 313.113C934.158 307.082 935.088 297.567 935.645 292.072C937.317 274.247 937.503 267.948 936.388 267.948C935.831 267.948 935.273 264.464 935.088 260.175C934.902 253.34 933.601 247.176 931.743 243.155C929.699 238.866 934.159 220.774 939.175 213.537C943.449 207.104 944.564 203.619 944.935 194.908C945.307 189.011 946.608 175.476 947.908 164.754C950.324 145.053 949.395 130.981 945.307 126.291C943.635 124.28 944.006 122.672 946.979 118.384C950.138 113.961 950.324 112.219 948.837 106.456C947.908 102.703 946.794 95.4663 946.608 90.3736C946.236 85.1469 945.493 76.4357 944.75 70.8069C943.635 61.5596 944.006 60.4875 947.537 58.0751C949.766 56.7349 952.554 54.0546 953.854 52.1783C957.013 47.6217 955.898 34.6218 952.182 32.6116C950.51 31.8074 949.209 30.4673 949.209 29.6631C949.209 26.9828 936.017 25.1065 905.544 23.4983C902.571 23.3643 896.625 22.5602 892.537 21.756C881.946 19.4777 865.595 18.2716 844.784 18.2716C831.592 18.2716 827.133 17.8695 827.69 16.6633C828.619 14.9211 817.47 12.7768 794.43 10.4985C780.123 9.15828 766.373 9.82837 762.285 12.1067C760.984 12.9108 759.498 12.6428 758.197 11.7046C756.897 10.4985 749.093 9.82838 734.228 9.56034C722.15 9.2923 707.286 8.48819 701.154 7.68408C689.076 6.07585 680.529 6.07585 665.85 7.41604C658.418 8.08613 655.817 7.81809 653.958 6.07585C652.472 4.73566 648.384 3.93155 643.739 3.79753C639.651 3.66351 634.077 3.26146 631.476 2.72538C628.874 2.18931 623.114 2.45734 618.469 3.26146C611.966 4.46763 608.621 4.46763 603.604 3.12744C594.685 0.84912 586.881 0.84912 583.165 3.26146C580.378 5.0037 579.635 5.0037 576.104 2.59136C571.645 -0.357048 567.186 -0.893123 566.071 1.51921C565.513 2.59136 564.027 2.72538 561.611 1.92127C557.895 0.715101 543.216 -0.357049 542.101 0.581083Z" fill="#B2D2B5"/>
</svg>
