<svg width="22" height="23" viewBox="0 0 22 23" fill="none" xmlns="http://www.w3.org/2000/svg">
<path d="M9.30769 9.96777H1.69231C0.75625 9.96777 0 10.724 0 11.6601C0 12.5961 0.75625 13.3524 1.69231 13.3524H9.30769H12.6923H20.3077C21.2437 13.3524 22 12.5961 22 11.6601C22 10.724 21.2437 9.96777 20.3077 9.96777H12.6923H9.30769Z" fill="#1A352C"/>
<path d="M12.6924 9.96785L12.6924 2.35246C12.6924 1.41641 11.9361 0.660156 11.0001 0.660156C10.064 0.660156 9.30777 1.41641 9.30777 2.35246L9.30777 9.96785L9.30777 13.3525L9.30777 20.9678C9.30777 21.9039 10.064 22.6602 11.0001 22.6602C11.9361 22.6602 12.6924 21.9039 12.6924 20.9678L12.6924 13.3525L12.6924 9.96785Z" fill="#1A352C"/>
</svg>
