<svg width="825" height="590" viewBox="0 0 825 590" fill="none" xmlns="http://www.w3.org/2000/svg">
<path fill-rule="evenodd" clip-rule="evenodd" d="M825 0H0V590H825V0ZM378.531 11.0414C393.927 11.6119 466.617 8.90203 468.045 7.6184C468.997 6.62002 481.535 7.76103 484.71 9.04465C486.773 9.90041 488.043 9.75778 488.519 8.61678C489.471 6.04952 493.28 6.62002 497.089 9.75778C500.105 12.325 500.74 12.325 503.12 10.4709C506.295 7.90365 512.96 7.90365 520.579 10.3283C524.864 11.7545 527.721 11.7545 533.276 10.4709C537.243 9.61516 542.163 9.32991 544.385 9.90041C546.607 10.4709 551.369 10.8988 554.86 11.0414C558.828 11.184 562.32 12.0398 563.59 13.466C565.177 15.3202 567.399 15.6054 573.747 14.8923C586.285 13.466 593.586 13.466 603.902 15.1775C609.14 16.0333 621.837 16.8891 632.153 17.1743C644.85 17.4596 651.516 18.1727 652.627 19.4563C653.738 20.4547 655.008 20.7399 656.119 19.8842C659.61 17.4596 671.355 16.7464 683.576 18.1727C703.256 20.5973 712.779 22.8793 711.985 24.7335C711.509 26.0171 715.318 26.445 726.587 26.445C744.362 26.445 758.329 27.7286 767.376 30.1532C770.867 31.009 775.946 31.8647 778.485 32.0074C804.514 33.7189 815.783 35.7156 815.783 38.5681C815.783 39.4239 816.894 40.8501 818.322 41.7059C821.496 43.8453 822.449 57.6799 819.75 62.5292C818.64 64.526 816.259 67.3785 814.354 68.8047C811.339 71.372 811.021 72.513 811.974 82.3541C812.608 88.3444 813.243 97.6151 813.561 103.177C813.719 108.597 814.672 116.299 815.465 120.293C816.735 126.425 816.576 128.28 813.878 132.986C811.339 137.55 811.021 139.262 812.45 141.401C815.941 146.393 816.735 161.369 814.672 182.335C813.561 193.745 812.45 208.15 812.132 214.425C811.815 223.696 810.863 227.404 807.212 234.25C802.927 241.952 799.118 261.206 800.864 265.77C802.451 270.049 803.562 276.61 803.721 283.884C803.879 288.448 804.355 292.156 804.832 292.156C805.784 292.156 805.625 298.86 804.197 317.829C803.721 323.676 802.927 333.803 802.61 340.221C802.133 346.639 801.34 352.629 800.705 353.485C798.642 356.623 797.055 371.313 798.642 373.025C799.753 374.166 799.753 374.879 798.801 374.879C796.261 374.879 798.324 395.417 800.864 396.701C802.134 397.271 803.086 400.124 803.245 403.119C803.403 409.68 805.308 414.101 813.243 426.795C819.909 437.206 820.068 438.775 819.274 464.02C819.116 467.871 819.274 473.005 819.592 475.43C819.909 477.712 819.592 480.992 818.798 482.846C818.163 484.558 817.37 491.404 817.211 498.107C816.894 508.234 817.211 510.801 819.75 513.226C821.338 514.794 822.131 516.506 821.655 516.934C821.02 517.504 821.814 519.644 823.242 521.783C826.734 527.346 824.988 532.48 818.322 535.333C813.402 537.472 810.545 541.038 801.181 556.441C799.594 559.008 798.324 563.145 798.324 565.712C798.324 571.559 795.309 583.255 793.087 585.679C790.706 588.389 782.929 586.678 779.279 582.827C776.581 579.832 775.311 579.546 762.297 580.117C719.762 581.828 625.646 578.833 601.204 574.982C589.777 573.271 583.428 573.128 562.002 574.412C540.259 575.838 535.656 575.696 529.784 573.841C521.214 571.132 477.726 568.564 449.952 568.992C407.734 569.848 334.092 568.707 328.537 567.138C325.522 566.282 318.062 565.141 311.872 564.571C305.841 563.858 297.588 562.717 293.621 561.861C289.653 561.148 279.178 560.435 270.131 560.292C259.021 560.292 252.355 559.579 249.34 558.153C246.801 557.012 244.261 556.584 243.785 557.154C243.15 557.582 242.039 557.297 241.404 556.299C240.452 554.872 232.199 554.872 201.409 556.013C102.214 560.007 89.9932 561.148 70.6303 567.281C57.9334 571.274 55.5527 571.702 51.5849 570.133C48.8868 569.135 46.03 568.422 45.2365 568.564C42.6971 568.992 39.2054 560.577 40.3164 556.726C40.9512 554.302 40.6338 553.161 39.3641 553.161C38.2531 553.161 35.2376 550.023 32.8569 546.029C28.7304 539.469 28.5717 538.185 29.2065 526.775C29.6827 520.072 30.4762 513.939 30.9524 513.368C31.2698 512.655 30.635 509.66 29.2065 506.807C27.9368 503.955 27.1433 501.245 27.6194 500.817C28.0956 500.389 27.302 498.107 26.0323 495.968C24.4452 493.115 24.1278 490.976 25.2387 489.407C26.3497 487.41 25.7149 486.412 22.0645 484.415C16.827 481.563 16.5096 480.279 20.0013 475.43C22.8581 471.579 22.0645 463.164 18.2554 458.172C16.9857 456.461 16.0335 453.18 16.0335 450.898C16.0335 448.759 15.8747 445.051 15.716 442.911C15.5573 440.629 16.9857 437.064 18.8903 434.782C20.6361 432.5 22.2232 430.075 22.2232 429.362C22.2232 428.649 23.1755 427.222 24.4452 426.224C25.7149 425.368 26.5084 423.799 26.0323 422.801C25.08 420.519 28.2543 414.957 33.0156 410.821C36.1899 407.968 36.666 406.542 35.7137 401.55C33.9679 392.137 27.1433 380.584 23.4929 380.584C20.6361 380.584 20.3187 379.871 21.1122 375.449C21.5884 372.597 23.1755 369.174 24.4452 367.89C26.191 366.179 26.5084 364.182 25.5562 360.474C24.7626 357.479 24.9213 354.341 25.7149 352.915C26.6672 351.488 26.5084 350.633 25.5562 350.633C24.6039 350.633 23.3342 348.065 22.8581 345.07C22.0645 340.649 20.9535 339.223 18.0967 338.652C13.6528 337.654 13.3354 336.085 16.827 332.947C19.049 330.95 18.8903 330.237 15.2399 325.388C12.8592 322.393 11.1134 318.684 11.1134 317.116C11.1134 315.404 10.3198 313.407 9.36756 312.552C8.574 311.838 7.78044 308.843 7.93915 306.276C7.93915 303.566 7.93915 300.143 8.09786 298.717C8.09786 297.148 7.14559 295.437 6.03461 294.866C4.6062 294.01 4.6062 293.012 6.35203 290.017C8.09786 287.022 8.25657 285.168 6.66946 279.89C3.97135 270.762 4.13007 270.334 11.9069 263.346C15.8747 259.923 19.3664 255.501 19.6838 253.647C19.8425 251.651 20.9535 248.228 21.9058 246.088C24.6039 240.526 24.2865 236.39 21.1122 232.253C17.4619 227.689 14.1289 219.275 15.3986 217.563C15.8747 216.993 14.6051 215.994 12.8592 215.566C10.1611 214.996 9.68498 214.14 10.6373 211.715C11.2721 210.147 11.7482 206.438 11.5895 203.728C10.4785 178.484 11.1134 169.356 14.1289 167.216C16.5096 165.505 16.827 164.506 18.2554 153.809C18.8903 150.244 20.3187 145.965 21.5884 144.254C22.8581 142.542 23.8103 138.263 23.8103 134.983C23.8103 131.56 24.9213 127.281 26.3497 125.427C27.9369 123.573 29.3653 120.15 29.524 117.725C29.8414 115.301 31.7459 110.451 33.6505 106.886C36.0312 102.464 36.5073 100.325 35.2376 99.8971C33.9679 99.6118 34.2853 98.3282 36.3486 95.9036C38.888 93.051 39.2054 91.4822 37.9357 87.7739C37.1421 85.3493 36.5073 81.2131 36.5073 78.6459C36.5073 76.2212 35.8724 73.7966 35.0789 73.3687C34.2853 72.7982 34.6028 70.6588 36.0312 68.0916C37.3009 65.8096 38.0944 62.3866 37.6183 60.6751C37.1421 58.9636 37.6183 55.9684 38.7293 54.1143C40.6338 51.1192 40.4751 50.2634 38.5705 48.5519C36.1899 46.2699 36.3486 41.8485 39.0467 41.8485C39.8402 41.8485 43.808 40.4223 47.6171 38.7107C51.5849 36.9992 59.0444 34.5746 64.2819 33.291C69.5194 32.0074 77.2962 30.0106 81.4228 28.8696C87.1364 27.4433 89.9932 27.3007 92.3739 28.4417C94.5959 29.5827 108.88 29.7253 139.511 28.8696C155.594 28.4893 171.958 28.1089 182.868 27.8554C188.324 27.7286 192.415 27.6335 194.426 27.586C208.551 27.3007 229.977 25.4466 234.104 24.163C235.849 23.5925 241.881 23.1646 247.594 23.3072C253.308 23.4498 260.132 23.0219 262.989 22.3088C265.687 21.5957 273.147 20.7399 279.654 20.5973C292.668 20.0268 312.031 17.3169 316.158 15.3202C317.745 14.607 320.76 14.0365 322.824 14.0365C325.046 14.0365 328.537 13.466 330.759 12.6103C334.727 11.3267 362.819 10.3283 378.531 11.0414Z" fill="#B2D2B5"/>
</svg>
