<svg width="516" height="101" viewBox="0 0 516 101" fill="none" xmlns="http://www.w3.org/2000/svg">
<path d="M291.38 0.107687C290.481 0.331215 244.739 0.803109 235.052 0.703763C225.164 0.57958 207.487 0.753436 204.99 0.976964C203.592 1.12598 201.395 1.22533 199.996 1.22533C198.698 1.22533 196.8 1.32468 195.802 1.44886C193.205 1.79657 181.021 2.26846 172.831 2.36781C168.736 2.39264 164.042 2.54166 162.344 2.66585C160.547 2.79003 156.252 2.86454 152.657 2.8397C149.061 2.81487 145.266 2.88937 144.168 2.98872C141.571 3.21225 128.088 3.53512 119.2 3.5848C115.404 3.60963 99.8243 3.70898 84.6437 3.80833C65.3684 3.95734 56.3798 3.93251 54.9816 3.73382C53.4835 3.53512 51.6858 3.55996 48.0904 3.80833C45.4937 4.00702 40.6 4.35473 37.3042 4.57826C34.0084 4.80179 29.3144 5.22401 26.8176 5.52204C24.4207 5.82008 21.9239 6.06845 21.4245 6.06845C19.7267 6.06845 19.6268 6.83838 21.1249 7.23576C22.3234 7.5338 22.4232 7.68282 21.2248 8.20439C20.5257 8.52726 20.226 9.04883 20.5257 9.34686C20.8253 9.6449 20.3259 10.241 19.5269 10.6384C18.6281 11.0854 18.4283 11.458 18.9277 11.5573C19.4271 11.6318 19.8265 12.054 19.8265 12.4763C19.8265 12.9233 20.226 13.6436 20.7254 14.0658C21.5244 14.7115 21.3246 14.9847 19.7267 15.4815C18.4283 15.9037 18.2286 16.1272 19.0276 16.1769C19.8265 16.2514 19.5269 16.624 18.0288 17.3939C16.8304 18.0148 15.6319 18.8592 15.4322 19.2815C15.3323 19.7037 14.4334 20.2998 13.4347 20.6226C12.5359 20.9455 11.8368 21.6906 11.8368 22.2867C11.8368 22.8579 11.2375 23.603 10.4385 23.9011C9.63956 24.1991 8.74071 24.9442 8.34122 25.5651C7.44237 27.4278 7.24262 27.6017 5.74454 27.8997C3.84696 28.2723 3.44747 29.8618 4.14658 34.2579C4.24645 34.7298 3.94683 35.3755 3.54734 35.6487C2.94811 36.0709 3.24773 36.22 4.94556 36.3193C6.04415 36.3938 6.84313 36.5677 6.54352 36.667C5.74454 36.9651 7.84186 38.4304 10.1389 39.2252C12.1364 39.9454 12.3361 40.6657 10.6383 41.6343C10.0391 42.0069 9.33994 42.6029 9.24007 42.9506C9.04033 43.2735 6.84313 44.0435 4.34632 44.6395C-0.547423 45.8565 -0.647295 45.931 1.05054 47.5206C2.04926 48.4395 1.94939 48.7624 0.850791 49.284C-0.247805 49.8055 -0.247805 49.9794 0.651046 50.1284C1.35015 50.2277 1.94939 50.5258 1.94939 50.799C1.84951 51.0473 1.84951 51.6434 1.84951 52.1153C1.74964 52.5624 2.249 53.0839 2.74837 53.2081C3.3476 53.3571 3.84696 53.7048 3.84696 54.0029C3.84696 54.2761 4.94556 54.9218 6.44364 55.4434C8.74071 56.2878 8.84058 56.412 7.44237 56.7597C5.24518 57.3061 5.44492 57.5793 8.24135 57.7532C10.0391 57.8525 10.7382 58.1009 11.2375 58.8708C11.5371 59.3924 12.3361 59.8395 12.9353 59.8395C13.5346 59.8395 13.6345 59.9885 13.0352 60.2368C12.5359 60.4852 12.436 61.0316 12.9353 61.5532C13.5346 62.1989 13.3348 62.5466 12.2362 62.8447C11.4373 63.0682 10.4385 63.6643 10.1389 64.161C9.63956 64.931 9.83931 65.0551 11.637 65.0551C13.9341 65.0551 18.2286 67.0669 19.3272 68.7061C19.9264 69.5754 19.6268 69.8237 17.6294 70.3205C14.6332 71.0407 12.6357 72.0093 13.235 72.4067C13.5346 72.5806 13.0352 72.8538 12.2362 73.0028C11.4373 73.1767 10.838 73.425 10.838 73.5492C10.838 73.6734 9.83931 74.0956 8.74071 74.493C7.54224 74.8904 6.64339 75.5113 6.74326 75.9087C6.84313 76.2812 6.94301 76.927 6.94301 77.2995C6.94301 77.6969 7.54224 78.2681 8.34122 78.5662C10.7382 79.4355 11.2375 80.9008 9.43982 81.5714C7.24262 82.4158 7.44237 82.6394 10.7382 83.1361C13.0352 83.4838 13.4347 83.6577 12.7356 84.0054C12.0365 84.2786 12.2362 84.6511 13.235 85.1479C14.0339 85.5204 14.5333 85.9178 14.2337 85.9923C13.9341 86.0668 14.4334 86.5387 15.2324 87.0354C16.1313 87.5322 16.5308 88.0537 16.331 88.1779C16.0314 88.2773 15.532 89.3452 15.2324 90.5125C14.8329 92.4995 14.9328 92.723 17.5295 93.8655C19.0276 94.5609 20.9251 95.1073 21.6242 95.1073C22.4232 95.1073 22.623 95.306 22.2235 95.7282C21.5244 96.3988 23.7216 97.8641 25.3195 97.7896C25.8189 97.7648 27.6166 97.889 29.3144 98.0628C31.8112 98.336 33.3093 98.2615 41.2991 97.5661C53.4835 96.4981 61.1737 96.2994 123.594 95.604C142.969 95.4053 148.163 95.4053 148.762 95.6537C149.161 95.8276 149.86 95.8772 150.26 95.8027C150.56 95.7034 152.157 95.7779 153.755 95.9766C155.653 96.2249 159.848 96.3491 166.839 96.3491C172.531 96.374 179.123 96.4981 181.62 96.6223C184.117 96.7713 189.31 96.97 193.105 97.0942C197 97.1936 201.694 97.3922 203.592 97.5413C207.087 97.8145 253.428 98.0132 279.994 97.8641C297.472 97.7896 324.837 98.2367 330.23 98.7086C333.925 99.0315 336.821 99.0563 350.504 98.8079C363.987 98.5844 367.982 98.6092 375.172 98.9073C390.553 99.5779 449.777 100.099 476.543 99.8014C484.732 99.702 485.531 99.7517 487.229 100.273C489.526 100.944 494.42 101.242 495.918 100.77C497.316 100.348 499.214 98.3112 499.214 97.2929C499.214 96.8458 500.013 96.1256 501.012 95.6785C506.904 92.9962 508.702 92.3753 511.798 92.0027C515.993 91.506 517.091 90.6119 514.894 89.6433C513.995 89.2707 513.496 88.8982 513.895 88.7988C514.195 88.7243 513.695 88.4263 512.697 88.1531C511.099 87.7309 510.899 87.2838 511.099 85.5204C511.199 84.3531 511.698 83.1609 512.098 82.8629C512.597 82.54 512.797 81.9688 512.597 81.5714C512.397 81.1492 512.297 80.2551 512.397 79.5845C512.896 75.1884 512.797 74.9152 508.602 73.1022C503.608 70.8917 502.41 70.1218 502.31 68.9793C502.21 68.4577 501.611 67.961 500.812 67.8617C499.214 67.6381 497.916 64.0617 499.514 64.0617C500.113 64.0617 500.113 63.9375 499.414 63.7388C498.415 63.4408 499.414 60.8826 500.712 60.3362C501.112 60.1872 501.611 59.144 501.91 58.0264C502.11 56.9088 502.61 55.1454 502.909 54.1271C503.808 50.8238 503.908 49.6565 503.309 49.6565C503.009 49.6565 502.709 49.0108 502.61 48.216C502.51 46.9493 501.811 45.8068 500.812 45.0617C499.713 44.267 502.11 40.9141 504.807 39.5729C507.104 38.3807 507.703 37.735 507.903 36.1206C508.103 35.0278 508.802 32.5193 509.501 30.5324C510.799 26.8814 510.3 24.2736 508.103 23.4043C507.204 23.0318 507.403 22.7337 509.001 21.939C510.699 21.1194 510.799 20.7965 510 19.7285C509.501 19.0331 508.902 17.6919 508.802 16.7481C508.602 15.7795 508.202 14.1651 507.803 13.122C507.204 11.4083 507.404 11.2096 509.301 10.7625C510.5 10.5142 511.998 10.0174 512.697 9.66974C514.395 8.8253 513.795 6.41616 511.798 6.04361C510.899 5.89459 510.2 5.64623 510.2 5.49721C510.2 5.00048 503.109 4.65277 486.73 4.35473C485.132 4.32989 481.936 4.18087 479.739 4.03185C474.046 3.60963 465.257 3.3861 454.072 3.3861C446.981 3.3861 444.584 3.3116 444.883 3.08807C445.383 2.76519 439.39 2.36781 427.006 1.94559C419.316 1.69722 411.925 1.82141 409.728 2.24363C409.029 2.39264 408.23 2.34297 407.531 2.16912C406.832 1.94559 402.637 1.82141 394.648 1.77173C388.156 1.72206 380.166 1.57304 376.87 1.42402C370.379 1.12598 365.784 1.12598 357.895 1.37435C353.9 1.49853 352.501 1.44886 351.503 1.12598C350.704 0.877618 348.507 0.728599 346.01 0.703763C343.813 0.678926 340.816 0.604417 339.418 0.505071C338.02 0.405725 334.924 0.455398 332.427 0.604417C328.932 0.827945 327.134 0.827945 324.437 0.57958C319.643 0.15736 315.449 0.15736 313.451 0.604417C311.953 0.927291 311.554 0.927291 309.656 0.480234C307.259 -0.0661686 304.862 -0.165515 304.263 0.281542C303.963 0.480234 303.165 0.505071 301.866 0.356052C299.869 0.132523 291.979 -0.0661686 291.38 0.107687Z" fill="#F2AB43"/>
</svg>
